<svg width="287" height="62" viewBox="0 0 287 62" fill="none" xmlns="http://www.w3.org/2000/svg">
<g clip-path="url(#clip0_36_26)">
<path fill-rule="evenodd" clip-rule="evenodd" d="M46.6125 52.2791L46.4633 22.5828L27.6706 33.3278L27.5 33.236V23.6283L27.5911 23.676L40.6137 16.2767L27.5911 9.10541L27.5 9.15859V0.284104L27.6807 0.179932L54.998 15.9343V47.4431L46.6125 52.2791ZM14.2042 16.8231L27.5 23.6283V33.236L8.71877 23.1291L8.57089 52.3888L0 47.5331L0.00200331 15.9343L27.3193 0.179932L27.5 0.284104V9.15859L14.2042 16.8231ZM38.4272 37.5166V55.5464L27.6821 61.2771V61.3742L27.5911 61.3255L27.5 61.3742V61.2771L16.755 55.5464V37.5166L27.5911 43.2957L38.4272 37.5166ZM66.58 24H65.164V15.612H67.372L69.904 20.88L72.436 15.612H74.632V24H73.216V17.448L70.288 23.268H69.496L66.58 17.448V24ZM80.404 22.752C81.06 22.752 81.58 22.528 81.964 22.08C82.348 21.632 82.54 21.024 82.54 20.256V15.612H83.956V20.316C83.956 21.524 83.624 22.454 82.96 23.106C82.296 23.758 81.444 24.084 80.404 24.084C79.364 24.084 78.512 23.758 77.848 23.106C77.184 22.454 76.852 21.524 76.852 20.316V15.612H78.268V20.256C78.268 21.024 78.46 21.632 78.844 22.08C79.228 22.528 79.748 22.752 80.404 22.752ZM86.176 24V15.612H87.592V22.656H91.42V24H86.176ZM95.272 16.908V24H93.856V16.908H91.312V15.612H97.816V16.908H95.272ZM99.352 15.612H100.768V24H99.352V15.612ZM110.212 24H108.628L105.256 15.612H106.84L109.42 21.876L112 15.612H113.584L110.212 24ZM120.676 15.612V16.944H116.2V19.164H120.22V20.424H116.2V22.668H120.82V24H114.784V15.612H120.676ZM128.92 15.612H130.336V24H128.8L124.048 17.88V24H122.632V15.612H124.048L128.92 21.876V15.612ZM139.012 16.71C139.82 17.442 140.224 18.46 140.224 19.764C140.224 21.068 139.832 22.1 139.048 22.86C138.264 23.62 137.064 24 135.448 24H132.664V15.612H135.544C137.048 15.612 138.204 15.978 139.012 16.71ZM138.796 19.8C138.796 17.88 137.696 16.92 135.496 16.92H134.08V22.668H135.652C136.668 22.668 137.446 22.426 137.986 21.942C138.526 21.458 138.796 20.744 138.796 19.8ZM145.924 16.704C145.092 16.704 144.39 17 143.818 17.592C143.246 18.184 142.96 18.902 142.96 19.746C142.96 20.59 143.246 21.308 143.818 21.9C144.39 22.492 145.092 22.788 145.924 22.788C146.756 22.788 147.458 22.492 148.03 21.9C148.602 21.308 148.888 20.59 148.888 19.746C148.888 18.902 148.602 18.184 148.03 17.592C147.458 17 146.756 16.704 145.924 16.704ZM145.924 24.084C144.676 24.084 143.628 23.67 142.78 22.842C141.932 22.014 141.508 20.982 141.508 19.746C141.508 18.51 141.932 17.478 142.78 16.65C143.628 15.822 144.676 15.408 145.924 15.408C147.172 15.408 148.22 15.822 149.068 16.65C149.916 17.478 150.34 18.51 150.34 19.746C150.34 20.982 149.916 22.014 149.068 22.842C148.22 23.67 147.172 24.084 145.924 24.084ZM158.824 18.336C158.824 19.72 158.22 20.592 157.012 20.952L159.208 24H157.408L155.404 21.18H153.544V24H152.128V15.612H155.248C156.528 15.612 157.444 15.828 157.996 16.26C158.548 16.692 158.824 17.384 158.824 18.336ZM156.94 19.524C157.228 19.276 157.372 18.878 157.372 18.33C157.372 17.782 157.224 17.406 156.928 17.202C156.632 16.998 156.104 16.896 155.344 16.896H153.544V19.896H155.308C156.108 19.896 156.652 19.772 156.94 19.524ZM68.16 48H65.328V31.224H69.744L74.808 41.76L79.872 31.224H84.264V48H81.432V34.896L75.576 46.536H73.992L68.16 34.896V48ZM98.88 48H96.432V46.296C95.376 47.56 93.96 48.192 92.184 48.192C90.856 48.192 89.756 47.816 88.884 47.064C88.012 46.312 87.576 45.308 87.576 44.052C87.576 42.796 88.04 41.856 88.968 41.232C89.896 40.608 91.152 40.296 92.736 40.296H96.216V39.816C96.216 38.12 95.272 37.272 93.384 37.272C92.2 37.272 90.968 37.704 89.688 38.568L88.488 36.888C90.04 35.656 91.8 35.04 93.768 35.04C95.272 35.04 96.5 35.42 97.452 36.18C98.404 36.94 98.88 38.136 98.88 39.768V48ZM96.192 43.248V42.168H93.168C91.232 42.168 90.264 42.776 90.264 43.992C90.264 44.616 90.504 45.092 90.984 45.42C91.464 45.748 92.132 45.912 92.988 45.912C93.844 45.912 94.592 45.672 95.232 45.192C95.872 44.712 96.192 44.064 96.192 43.248ZM109.32 37.752C107.992 37.752 106.992 38.184 106.32 39.048C105.648 39.912 105.312 41.072 105.312 42.528V48H102.624V35.232H105.312V37.8C105.744 37 106.332 36.344 107.076 35.832C107.82 35.32 108.608 35.056 109.44 35.04L109.464 37.752H109.32ZM114.84 48H112.152V30.192H114.84V40.656L120.024 35.232H123.48L118.632 40.296L123.84 48H120.576L116.784 42.408L114.84 44.376V48ZM137.976 42.792H127.968C128.032 43.72 128.456 44.468 129.24 45.036C130.024 45.604 130.92 45.888 131.928 45.888C133.528 45.888 134.744 45.384 135.576 44.376L137.112 46.056C135.736 47.48 133.944 48.192 131.736 48.192C129.944 48.192 128.42 47.596 127.164 46.404C125.908 45.212 125.28 43.612 125.28 41.604C125.28 39.596 125.92 38 127.2 36.816C128.48 35.632 129.988 35.04 131.724 35.04C133.46 35.04 134.936 35.564 136.152 36.612C137.368 37.66 137.976 39.104 137.976 40.944V42.792ZM127.968 40.68H135.288C135.288 39.608 134.952 38.784 134.28 38.208C133.608 37.632 132.78 37.344 131.796 37.344C130.812 37.344 129.928 37.644 129.144 38.244C128.36 38.844 127.968 39.656 127.968 40.68ZM144.144 37.392V43.872C144.144 44.48 144.304 44.964 144.624 45.324C144.944 45.684 145.392 45.864 145.968 45.864C146.544 45.864 147.096 45.584 147.624 45.024L148.728 46.92C147.784 47.768 146.74 48.192 145.596 48.192C144.452 48.192 143.476 47.796 142.668 47.004C141.86 46.212 141.456 45.144 141.456 43.8V37.392H139.848V35.232H141.456V31.224H144.144V35.232H147.504V37.392H144.144ZM162.096 36.816C163.312 38 163.92 39.576 163.92 41.544C163.92 43.512 163.316 45.112 162.108 46.344C160.9 47.576 159.492 48.192 157.884 48.192C156.276 48.192 154.832 47.488 153.552 46.08V52.656H150.864V35.232H153.552V37.464C154.608 35.848 155.992 35.04 157.704 35.04C159.416 35.04 160.88 35.632 162.096 36.816ZM154.608 44.628C155.344 45.404 156.24 45.792 157.296 45.792C158.352 45.792 159.272 45.408 160.056 44.64C160.84 43.872 161.232 42.876 161.232 41.652C161.232 40.428 160.848 39.412 160.08 38.604C159.312 37.796 158.392 37.392 157.32 37.392C156.248 37.392 155.344 37.796 154.608 38.604C153.872 39.412 153.504 40.424 153.504 41.64C153.504 42.856 153.872 43.852 154.608 44.628ZM169.68 48H166.992V30.192H169.68V48ZM183.912 48H181.464V46.296C180.408 47.56 178.992 48.192 177.216 48.192C175.888 48.192 174.788 47.816 173.916 47.064C173.044 46.312 172.608 45.308 172.608 44.052C172.608 42.796 173.072 41.856 174 41.232C174.928 40.608 176.184 40.296 177.768 40.296H181.248V39.816C181.248 38.12 180.304 37.272 178.416 37.272C177.232 37.272 176 37.704 174.72 38.568L173.52 36.888C175.072 35.656 176.832 35.04 178.8 35.04C180.304 35.04 181.532 35.42 182.484 36.18C183.436 36.94 183.912 38.136 183.912 39.768V48ZM181.224 43.248V42.168H178.2C176.264 42.168 175.296 42.776 175.296 43.992C175.296 44.616 175.536 45.092 176.016 45.42C176.496 45.748 177.164 45.912 178.02 45.912C178.876 45.912 179.624 45.672 180.264 45.192C180.904 44.712 181.224 44.064 181.224 43.248ZM193.32 48.192C191.544 48.192 190.016 47.588 188.736 46.38C187.456 45.172 186.816 43.592 186.816 41.64C186.816 39.688 187.484 38.1 188.82 36.876C190.156 35.652 191.784 35.04 193.704 35.04C195.624 35.04 197.248 35.704 198.576 37.032L196.992 38.976C195.888 38.016 194.776 37.536 193.656 37.536C192.536 37.536 191.564 37.908 190.74 38.652C189.916 39.396 189.504 40.356 189.504 41.532C189.504 42.708 189.912 43.704 190.728 44.52C191.544 45.336 192.548 45.744 193.74 45.744C194.932 45.744 196.056 45.2 197.112 44.112L198.696 45.84C197.144 47.408 195.352 48.192 193.32 48.192ZM213.36 42.792H203.352C203.416 43.72 203.84 44.468 204.624 45.036C205.408 45.604 206.304 45.888 207.312 45.888C208.912 45.888 210.128 45.384 210.96 44.376L212.496 46.056C211.12 47.48 209.328 48.192 207.12 48.192C205.328 48.192 203.804 47.596 202.548 46.404C201.292 45.212 200.664 43.612 200.664 41.604C200.664 39.596 201.304 38 202.584 36.816C203.864 35.632 205.372 35.04 207.108 35.04C208.844 35.04 210.32 35.564 211.536 36.612C212.752 37.66 213.36 39.104 213.36 40.944V42.792ZM203.352 40.68H210.672C210.672 39.608 210.336 38.784 209.664 38.208C208.992 37.632 208.164 37.344 207.18 37.344C206.196 37.344 205.312 37.644 204.528 38.244C203.744 38.844 203.352 39.656 203.352 40.68Z" fill="black"/>
<path opacity="0.2" d="M224 26C224 25.4477 223.552 25 223 25C222.448 25 222 25.4477 222 26V54C222 54.5523 222.448 55 223 55C223.552 55 224 54.5523 224 54V26Z" fill="black"/>
<path d="M232.909 48V31.9H240.223C241.971 31.9 243.512 32.2373 244.846 32.912C246.18 33.5713 247.223 34.499 247.974 35.695C248.725 36.891 249.101 38.3093 249.101 39.95C249.101 41.5753 248.725 42.9937 247.974 44.205C247.223 45.401 246.18 46.3363 244.846 47.011C243.512 47.6703 241.971 48 240.223 48H232.909ZM236.635 44.941H240.039C241.112 44.941 242.04 44.7417 242.822 44.343C243.619 43.929 244.233 43.3463 244.662 42.595C245.107 41.8437 245.329 40.962 245.329 39.95C245.329 38.9227 245.107 38.041 244.662 37.305C244.233 36.5537 243.619 35.9787 242.822 35.58C242.04 35.166 241.112 34.959 240.039 34.959H236.635V44.941ZM259.731 48.276C258.458 48.276 257.278 48.069 256.189 47.655C255.116 47.241 254.18 46.6583 253.383 45.907C252.601 45.1557 251.988 44.274 251.543 43.262C251.114 42.25 250.899 41.146 250.899 39.95C250.899 38.754 251.114 37.65 251.543 36.638C251.988 35.626 252.609 34.7443 253.406 33.993C254.203 33.2417 255.139 32.659 256.212 32.245C257.285 31.831 258.451 31.624 259.708 31.624C260.981 31.624 262.146 31.831 263.204 32.245C264.277 32.659 265.205 33.2417 265.987 33.993C266.784 34.7443 267.405 35.626 267.85 36.638C268.295 37.6347 268.517 38.7387 268.517 39.95C268.517 41.146 268.295 42.2577 267.85 43.285C267.405 44.297 266.784 45.1787 265.987 45.93C265.205 46.666 264.277 47.241 263.204 47.655C262.146 48.069 260.988 48.276 259.731 48.276ZM259.708 45.102C260.429 45.102 261.088 44.9793 261.686 44.734C262.299 44.4887 262.836 44.136 263.296 43.676C263.756 43.216 264.109 42.6717 264.354 42.043C264.615 41.4143 264.745 40.7167 264.745 39.95C264.745 39.1833 264.615 38.4857 264.354 37.857C264.109 37.2283 263.756 36.684 263.296 36.224C262.851 35.764 262.322 35.4113 261.709 35.166C261.096 34.9207 260.429 34.798 259.708 34.798C258.987 34.798 258.32 34.9207 257.707 35.166C257.109 35.4113 256.58 35.764 256.12 36.224C255.66 36.684 255.3 37.2283 255.039 37.857C254.794 38.4857 254.671 39.1833 254.671 39.95C254.671 40.7013 254.794 41.399 255.039 42.043C255.3 42.6717 255.652 43.216 256.097 43.676C256.557 44.136 257.094 44.4887 257.707 44.734C258.32 44.9793 258.987 45.102 259.708 45.102ZM279.022 48.276C277.78 48.276 276.623 48.0767 275.549 47.678C274.491 47.264 273.571 46.6813 272.789 45.93C272.007 45.1787 271.394 44.297 270.949 43.285C270.52 42.273 270.305 41.1613 270.305 39.95C270.305 38.7387 270.52 37.627 270.949 36.615C271.394 35.603 272.007 34.7213 272.789 33.97C273.587 33.2187 274.514 32.6437 275.572 32.245C276.63 31.831 277.788 31.624 279.045 31.624C280.441 31.624 281.698 31.8693 282.817 32.36C283.952 32.8353 284.903 33.5407 285.669 34.476L283.277 36.684C282.725 36.0553 282.112 35.5877 281.437 35.281C280.763 34.959 280.027 34.798 279.229 34.798C278.478 34.798 277.788 34.9207 277.159 35.166C276.531 35.4113 275.986 35.764 275.526 36.224C275.066 36.684 274.706 37.2283 274.445 37.857C274.2 38.4857 274.077 39.1833 274.077 39.95C274.077 40.7167 274.2 41.4143 274.445 42.043C274.706 42.6717 275.066 43.216 275.526 43.676C275.986 44.136 276.531 44.4887 277.159 44.734C277.788 44.9793 278.478 45.102 279.229 45.102C280.027 45.102 280.763 44.9487 281.437 44.642C282.112 44.32 282.725 43.837 283.277 43.193L285.669 45.401C284.903 46.3363 283.952 47.0493 282.817 47.54C281.698 48.0307 280.433 48.276 279.022 48.276Z" fill="black"/>
</g>
<defs>
<clipPath id="clip0_36_26">
<rect width="287" height="62" fill="white"/>
</clipPath>
</defs>
</svg>
